# xmcd
#
# Track frame offsets:
#	150
#	19692
#	34349
#	49511
#	63942
#	79393
#	93156
#	105633
#	116871
#	130699
#	145883
#	157571
#	172928
#	190985
#	203440
#
# Disc length: 2920 seconds
#
# Revision: 0
# Processed by: cddbd v1.5.2PL0 Copyright (c) Steve Scherf et al.
# Submitted via: EasyCDDAExtractor 16.0.6.1
#
DISCID=b90b660f
DTITLE=Αγγελόπουλος Μανώλης - Πορτρέτο-Μ. Αγγελόπουλος 1
DYEAR=2014
DGENRE=Λαϊκή
TTITLE0=Τα μαύρα μάτια σου [διασκ. Μ. Αγγελόπουλος-Μ. Μπιζάνη]
TTITLE1=Όταν ακούω την βροχή [Θοδ. Καμπουρίδης-Ανδ. Σπυρόπουλος]
TTITLE2=Καλή τύχη [Απ. Καλδάρας]
TTITLE3=Πήρε φωτιά η Καλαμαριά [Θοδ. Καμπουρίδης-Κ. Λιβανός]
TTITLE4=Τα φιλιά σου είναι φωτιά [Moh. Adbel Wahab, ελλ.σ. Λ. Τσώλης]
TTITLE5=Ο πρόσφυγας [Νάκης Πετρίδης-Μάρω Μπιζάνη]
TTITLE6=Στη ζωή μου είσαι σταθμός [Μ. Αγγελόπουλος-Λευτ. Χαψιάδης]
TTITLE7=Μιά φωτιά [Μ. Αγγελόπουλος]
TTITLE8=Ήρθες πάνω στην ώρα [Θοδ. Καμπουρίδης-Άγγ. Αξιώτης]
TTITLE9=Κάνε μου τέτοια [Νάκης Πετρίδης-Ηλίας Φιλίππου]
TTITLE10=Όσο αξίζεις εσύ [Απ. Καλδάρας]
TTITLE11=Ανέβα στο τραπέζι μου [Μπ. Μπακάλης-Κ. Βίρβος]
TTITLE12=Μισιρλού [Νίκος Ρουμπάνης]
TTITLE13=Φαρίντα [Β. Τσιτσάνης-Δημ. Ευσταθίου]
TTITLE14=Ανατολίτισσα [Θοδ. Καμπουρίδης-Ηλίας Φιλίππου]
EXTD=
EXTT0=
EXTT1=
EXTT2=
EXTT3=
EXTT4=
EXTT5=
EXTT6=
EXTT7=
EXTT8=
EXTT9=
EXTT10=
EXTT11=
EXTT12=
EXTT13=
EXTT14=
PLAYORDER=
